<mxfile host="app.diagrams.net" agent="Mozilla/5.0 (Macintosh; Intel Mac OS X 10_15_7) AppleWebKit/537.36 (KHTML, like Gecko) Chrome/134.0.0.0 Safari/537.36" version="26.1.1">
  <diagram name="Сторінка-1" id="In92gYPcN5SKaUIocuaQ">
    <mxGraphModel dx="760" dy="436" grid="1" gridSize="10" guides="1" tooltips="1" connect="1" arrows="1" fold="1" page="1" pageScale="1" pageWidth="827" pageHeight="1169" math="0" shadow="0">
      <root>
        <mxCell id="0" />
        <mxCell id="1" parent="0" />
        <mxCell id="Zes0WI2KeH20eFHIl-d8-1" value="T2" style="shape=parallelogram;perimeter=parallelogramPerimeter;whiteSpace=wrap;html=1;fixedSize=1;fillColor=#dae8fc;strokeColor=#6c8ebf;" parent="1" vertex="1">
          <mxGeometry x="200" y="20" width="410" height="60" as="geometry" />
        </mxCell>
        <mxCell id="Zes0WI2KeH20eFHIl-d8-2" value="T1" style="shape=parallelogram;perimeter=parallelogramPerimeter;whiteSpace=wrap;html=1;fixedSize=1;rotation=-90;fillColor=#dae8fc;strokeColor=#6c8ebf;" parent="1" vertex="1">
          <mxGeometry x="-85" y="305" width="430" height="60" as="geometry" />
        </mxCell>
        <mxCell id="Zes0WI2KeH20eFHIl-d8-4" value="T4" style="shape=parallelogram;perimeter=parallelogramPerimeter;whiteSpace=wrap;html=1;fixedSize=1;fillColor=#dae8fc;strokeColor=#6c8ebf;" parent="1" vertex="1">
          <mxGeometry x="189" y="585" width="450" height="60" as="geometry" />
        </mxCell>
        <mxCell id="Zes0WI2KeH20eFHIl-d8-5" value="T3" style="shape=parallelogram;perimeter=parallelogramPerimeter;whiteSpace=wrap;html=1;fixedSize=1;rotation=90;align=center;fillColor=#dae8fc;strokeColor=#6c8ebf;" parent="1" vertex="1">
          <mxGeometry x="464" y="302" width="424" height="60" as="geometry" />
        </mxCell>
        <mxCell id="Zes0WI2KeH20eFHIl-d8-6" value="S1,1" style="ellipse;whiteSpace=wrap;html=1;aspect=fixed;fillColor=#fff2cc;strokeColor=#d6b656;" parent="1" vertex="1">
          <mxGeometry x="190" y="68" width="30" height="30" as="geometry" />
        </mxCell>
        <mxCell id="Zes0WI2KeH20eFHIl-d8-7" value="S3,1" style="ellipse;whiteSpace=wrap;html=1;aspect=fixed;fillColor=#fff2cc;strokeColor=#d6b656;" parent="1" vertex="1">
          <mxGeometry x="230" y="66" width="30" height="30" as="geometry" />
        </mxCell>
        <mxCell id="Zes0WI2KeH20eFHIl-d8-8" value="S4,1" style="ellipse;whiteSpace=wrap;html=1;aspect=fixed;fillColor=#fff2cc;strokeColor=#d6b656;" parent="1" vertex="1">
          <mxGeometry x="262" y="67" width="28" height="28" as="geometry" />
        </mxCell>
        <mxCell id="Zes0WI2KeH20eFHIl-d8-9" value="W1,1" style="ellipse;whiteSpace=wrap;html=1;aspect=fixed;fillColor=#fff2cc;strokeColor=#d6b656;" parent="1" vertex="1">
          <mxGeometry x="290" y="68" width="28" height="28" as="geometry" />
        </mxCell>
        <mxCell id="Zes0WI2KeH20eFHIl-d8-87" value="W3,1" style="ellipse;whiteSpace=wrap;html=1;aspect=fixed;fillColor=#fff2cc;strokeColor=#d6b656;" parent="1" vertex="1">
          <mxGeometry x="330" y="67" width="30" height="30" as="geometry" />
        </mxCell>
        <mxCell id="Zes0WI2KeH20eFHIl-d8-88" value="W4,1" style="ellipse;whiteSpace=wrap;html=1;aspect=fixed;fillColor=#fff2cc;strokeColor=#d6b656;" parent="1" vertex="1">
          <mxGeometry x="360" y="68" width="28" height="28" as="geometry" />
        </mxCell>
        <mxCell id="Zes0WI2KeH20eFHIl-d8-89" value="S1,2" style="ellipse;whiteSpace=wrap;html=1;aspect=fixed;fillColor=#fff2cc;strokeColor=#d6b656;" parent="1" vertex="1">
          <mxGeometry x="388" y="68" width="28" height="28" as="geometry" />
        </mxCell>
        <mxCell id="Zes0WI2KeH20eFHIl-d8-90" value="S3,2" style="ellipse;whiteSpace=wrap;html=1;aspect=fixed;fillColor=#fff2cc;strokeColor=#d6b656;" parent="1" vertex="1">
          <mxGeometry x="416" y="68" width="28" height="28" as="geometry" />
        </mxCell>
        <mxCell id="Zes0WI2KeH20eFHIl-d8-91" value="S4,2" style="ellipse;whiteSpace=wrap;html=1;aspect=fixed;fillColor=#fff2cc;strokeColor=#d6b656;" parent="1" vertex="1">
          <mxGeometry x="444" y="67" width="28" height="28" as="geometry" />
        </mxCell>
        <mxCell id="Zes0WI2KeH20eFHIl-d8-92" value="W4,2" style="ellipse;whiteSpace=wrap;html=1;aspect=fixed;fillColor=#fff2cc;strokeColor=#d6b656;" parent="1" vertex="1">
          <mxGeometry x="532" y="68" width="28" height="28" as="geometry" />
        </mxCell>
        <mxCell id="Zes0WI2KeH20eFHIl-d8-93" value="S1,3" style="ellipse;whiteSpace=wrap;html=1;aspect=fixed;fillColor=#fff2cc;strokeColor=#d6b656;" parent="1" vertex="1">
          <mxGeometry x="560" y="66" width="28" height="28" as="geometry" />
        </mxCell>
        <mxCell id="Zes0WI2KeH20eFHIl-d8-97" value="S2,1" style="ellipse;whiteSpace=wrap;html=1;aspect=fixed;fillColor=#fff2cc;strokeColor=#d6b656;" parent="1" vertex="1">
          <mxGeometry x="150" y="130" width="30" height="30" as="geometry" />
        </mxCell>
        <mxCell id="Zes0WI2KeH20eFHIl-d8-98" value="S3,1" style="ellipse;whiteSpace=wrap;html=1;aspect=fixed;fillColor=#fff2cc;strokeColor=#d6b656;" parent="1" vertex="1">
          <mxGeometry x="150" y="158" width="28" height="28" as="geometry" />
        </mxCell>
        <mxCell id="Zes0WI2KeH20eFHIl-d8-99" value="S4,1" style="ellipse;whiteSpace=wrap;html=1;aspect=fixed;fillColor=#fff2cc;strokeColor=#d6b656;" parent="1" vertex="1">
          <mxGeometry x="150" y="186" width="28" height="28" as="geometry" />
        </mxCell>
        <mxCell id="Zes0WI2KeH20eFHIl-d8-100" value="W2,1" style="ellipse;whiteSpace=wrap;html=1;aspect=fixed;fillColor=#fff2cc;strokeColor=#d6b656;" parent="1" vertex="1">
          <mxGeometry x="150" y="214" width="28" height="28" as="geometry" />
        </mxCell>
        <mxCell id="Zes0WI2KeH20eFHIl-d8-101" value="W3,1" style="ellipse;whiteSpace=wrap;html=1;aspect=fixed;fillColor=#fff2cc;strokeColor=#d6b656;" parent="1" vertex="1">
          <mxGeometry x="150" y="242" width="28" height="28" as="geometry" />
        </mxCell>
        <mxCell id="Zes0WI2KeH20eFHIl-d8-102" value="W4,1" style="ellipse;whiteSpace=wrap;html=1;aspect=fixed;fillColor=#fff2cc;strokeColor=#d6b656;" parent="1" vertex="1">
          <mxGeometry x="150" y="270" width="28" height="28" as="geometry" />
        </mxCell>
        <mxCell id="Zes0WI2KeH20eFHIl-d8-103" value="S2,2" style="ellipse;whiteSpace=wrap;html=1;aspect=fixed;fillColor=#fff2cc;strokeColor=#d6b656;" parent="1" vertex="1">
          <mxGeometry x="150" y="298" width="28" height="28" as="geometry" />
        </mxCell>
        <mxCell id="Zes0WI2KeH20eFHIl-d8-104" value="S3,2" style="ellipse;whiteSpace=wrap;html=1;aspect=fixed;fillColor=#fff2cc;strokeColor=#d6b656;" parent="1" vertex="1">
          <mxGeometry x="150" y="326" width="28" height="28" as="geometry" />
        </mxCell>
        <mxCell id="Zes0WI2KeH20eFHIl-d8-105" value="S4,2" style="ellipse;whiteSpace=wrap;html=1;aspect=fixed;fillColor=#fff2cc;strokeColor=#d6b656;" parent="1" vertex="1">
          <mxGeometry x="150" y="354" width="28" height="28" as="geometry" />
        </mxCell>
        <mxCell id="Zes0WI2KeH20eFHIl-d8-106" value="W2,2" style="ellipse;whiteSpace=wrap;html=1;aspect=fixed;fillColor=#fff2cc;strokeColor=#d6b656;" parent="1" vertex="1">
          <mxGeometry x="150" y="382" width="28" height="28" as="geometry" />
        </mxCell>
        <mxCell id="Zes0WI2KeH20eFHIl-d8-107" value="W3,2" style="ellipse;whiteSpace=wrap;html=1;aspect=fixed;fillColor=#fff2cc;strokeColor=#d6b656;" parent="1" vertex="1">
          <mxGeometry x="150" y="410" width="28" height="28" as="geometry" />
        </mxCell>
        <mxCell id="Zes0WI2KeH20eFHIl-d8-108" value="W4,2" style="ellipse;whiteSpace=wrap;html=1;aspect=fixed;fillColor=#fff2cc;strokeColor=#d6b656;" parent="1" vertex="1">
          <mxGeometry x="150" y="438" width="28" height="28" as="geometry" />
        </mxCell>
        <mxCell id="Zes0WI2KeH20eFHIl-d8-109" value="W2,3" style="ellipse;whiteSpace=wrap;html=1;aspect=fixed;fillColor=#fff2cc;strokeColor=#d6b656;" parent="1" vertex="1">
          <mxGeometry x="150" y="466" width="28" height="28" as="geometry" />
        </mxCell>
        <mxCell id="Zes0WI2KeH20eFHIl-d8-110" value="W3,3" style="ellipse;whiteSpace=wrap;html=1;aspect=fixed;fillColor=#fff2cc;strokeColor=#d6b656;" parent="1" vertex="1">
          <mxGeometry x="150" y="494" width="28" height="28" as="geometry" />
        </mxCell>
        <mxCell id="Zes0WI2KeH20eFHIl-d8-111" value="W4,3" style="ellipse;whiteSpace=wrap;html=1;aspect=fixed;fillColor=#fff2cc;strokeColor=#d6b656;" parent="1" vertex="1">
          <mxGeometry x="150" y="522" width="28" height="28" as="geometry" />
        </mxCell>
        <mxCell id="Zes0WI2KeH20eFHIl-d8-112" value="S1,1" style="ellipse;whiteSpace=wrap;html=1;aspect=fixed;fillColor=#fff2cc;strokeColor=#d6b656;" parent="1" vertex="1">
          <mxGeometry x="630" y="120" width="28" height="28" as="geometry" />
        </mxCell>
        <mxCell id="Zes0WI2KeH20eFHIl-d8-114" value="S2,1" style="ellipse;whiteSpace=wrap;html=1;aspect=fixed;fillColor=#fff2cc;strokeColor=#d6b656;" parent="1" vertex="1">
          <mxGeometry x="630" y="158" width="28" height="28" as="geometry" />
        </mxCell>
        <mxCell id="Zes0WI2KeH20eFHIl-d8-115" value="S4,1" style="ellipse;whiteSpace=wrap;html=1;aspect=fixed;fillColor=#fff2cc;strokeColor=#d6b656;" parent="1" vertex="1">
          <mxGeometry x="630" y="186" width="28" height="28" as="geometry" />
        </mxCell>
        <mxCell id="Zes0WI2KeH20eFHIl-d8-116" value="W1,1" style="ellipse;whiteSpace=wrap;html=1;aspect=fixed;fillColor=#fff2cc;strokeColor=#d6b656;" parent="1" vertex="1">
          <mxGeometry x="630" y="214" width="28" height="28" as="geometry" />
        </mxCell>
        <mxCell id="Zes0WI2KeH20eFHIl-d8-117" value="W2,1" style="ellipse;whiteSpace=wrap;html=1;aspect=fixed;fillColor=#fff2cc;strokeColor=#d6b656;" parent="1" vertex="1">
          <mxGeometry x="630" y="242" width="28" height="28" as="geometry" />
        </mxCell>
        <mxCell id="Zes0WI2KeH20eFHIl-d8-118" value="W4,1" style="ellipse;whiteSpace=wrap;html=1;aspect=fixed;fillColor=#fff2cc;strokeColor=#d6b656;" parent="1" vertex="1">
          <mxGeometry x="630" y="270" width="28" height="28" as="geometry" />
        </mxCell>
        <mxCell id="Zes0WI2KeH20eFHIl-d8-119" value="S1,2" style="ellipse;whiteSpace=wrap;html=1;aspect=fixed;fillColor=#fff2cc;strokeColor=#d6b656;" parent="1" vertex="1">
          <mxGeometry x="630" y="298" width="28" height="28" as="geometry" />
        </mxCell>
        <mxCell id="Zes0WI2KeH20eFHIl-d8-120" value="S2,2" style="ellipse;whiteSpace=wrap;html=1;aspect=fixed;fillColor=#fff2cc;strokeColor=#d6b656;" parent="1" vertex="1">
          <mxGeometry x="630" y="326" width="28" height="28" as="geometry" />
        </mxCell>
        <mxCell id="Zes0WI2KeH20eFHIl-d8-121" value="S4,2" style="ellipse;whiteSpace=wrap;html=1;aspect=fixed;fillColor=#fff2cc;strokeColor=#d6b656;" parent="1" vertex="1">
          <mxGeometry x="630" y="354" width="28" height="28" as="geometry" />
        </mxCell>
        <mxCell id="Zes0WI2KeH20eFHIl-d8-122" value="W1,2" style="ellipse;whiteSpace=wrap;html=1;aspect=fixed;fillColor=#fff2cc;strokeColor=#d6b656;" parent="1" vertex="1">
          <mxGeometry x="630" y="382" width="28" height="28" as="geometry" />
        </mxCell>
        <mxCell id="Zes0WI2KeH20eFHIl-d8-123" value="W2,2" style="ellipse;whiteSpace=wrap;html=1;aspect=fixed;fillColor=#fff2cc;strokeColor=#d6b656;" parent="1" vertex="1">
          <mxGeometry x="630" y="410" width="28" height="28" as="geometry" />
        </mxCell>
        <mxCell id="Zes0WI2KeH20eFHIl-d8-124" value="W4,2" style="ellipse;whiteSpace=wrap;html=1;aspect=fixed;fillColor=#fff2cc;strokeColor=#d6b656;" parent="1" vertex="1">
          <mxGeometry x="630" y="438" width="28" height="28" as="geometry" />
        </mxCell>
        <mxCell id="Zes0WI2KeH20eFHIl-d8-125" value="S1,3" style="ellipse;whiteSpace=wrap;html=1;aspect=fixed;fillColor=#fff2cc;strokeColor=#d6b656;" parent="1" vertex="1">
          <mxGeometry x="630" y="480" width="28" height="28" as="geometry" />
        </mxCell>
        <mxCell id="Zes0WI2KeH20eFHIl-d8-126" value="S1,1" style="ellipse;whiteSpace=wrap;html=1;aspect=fixed;fillColor=#fff2cc;strokeColor=#d6b656;" parent="1" vertex="1">
          <mxGeometry x="200" y="569.5" width="30" height="30" as="geometry" />
        </mxCell>
        <mxCell id="Zes0WI2KeH20eFHIl-d8-128" value="S2,1" style="ellipse;whiteSpace=wrap;html=1;aspect=fixed;fillColor=#fff2cc;strokeColor=#d6b656;" parent="1" vertex="1">
          <mxGeometry x="240" y="569.5" width="30" height="30" as="geometry" />
        </mxCell>
        <mxCell id="Zes0WI2KeH20eFHIl-d8-129" value="S3,1" style="ellipse;whiteSpace=wrap;html=1;aspect=fixed;fillColor=#fff2cc;strokeColor=#d6b656;" parent="1" vertex="1">
          <mxGeometry x="280" y="570" width="30" height="30" as="geometry" />
        </mxCell>
        <mxCell id="Zes0WI2KeH20eFHIl-d8-130" value="W1,1" style="ellipse;whiteSpace=wrap;html=1;aspect=fixed;fillColor=#fff2cc;strokeColor=#d6b656;" parent="1" vertex="1">
          <mxGeometry x="310" y="570" width="30" height="30" as="geometry" />
        </mxCell>
        <mxCell id="Zes0WI2KeH20eFHIl-d8-131" value="W2,1" style="ellipse;whiteSpace=wrap;html=1;aspect=fixed;fillColor=#fff2cc;strokeColor=#d6b656;" parent="1" vertex="1">
          <mxGeometry x="345" y="569.5" width="30" height="30" as="geometry" />
        </mxCell>
        <mxCell id="Zes0WI2KeH20eFHIl-d8-132" value="W3,1" style="ellipse;whiteSpace=wrap;html=1;aspect=fixed;fillColor=#fff2cc;strokeColor=#d6b656;" parent="1" vertex="1">
          <mxGeometry x="380" y="569.5" width="30" height="30" as="geometry" />
        </mxCell>
        <mxCell id="Zes0WI2KeH20eFHIl-d8-133" value="S1,2" style="ellipse;whiteSpace=wrap;html=1;aspect=fixed;fillColor=#fff2cc;strokeColor=#d6b656;" parent="1" vertex="1">
          <mxGeometry x="420" y="570" width="30" height="30" as="geometry" />
        </mxCell>
        <mxCell id="Zes0WI2KeH20eFHIl-d8-134" value="S2,2" style="ellipse;whiteSpace=wrap;html=1;aspect=fixed;fillColor=#fff2cc;strokeColor=#d6b656;" parent="1" vertex="1">
          <mxGeometry x="458" y="569.5" width="30" height="30" as="geometry" />
        </mxCell>
        <mxCell id="Zes0WI2KeH20eFHIl-d8-135" value="S3,2" style="ellipse;whiteSpace=wrap;html=1;aspect=fixed;fillColor=#fff2cc;strokeColor=#d6b656;" parent="1" vertex="1">
          <mxGeometry x="488" y="570" width="30" height="30" as="geometry" />
        </mxCell>
        <mxCell id="Zes0WI2KeH20eFHIl-d8-136" value="W1,2" style="ellipse;whiteSpace=wrap;html=1;aspect=fixed;fillColor=#fff2cc;strokeColor=#d6b656;" parent="1" vertex="1">
          <mxGeometry x="518" y="570" width="30" height="30" as="geometry" />
        </mxCell>
        <mxCell id="Zes0WI2KeH20eFHIl-d8-137" value="W2,2" style="ellipse;whiteSpace=wrap;html=1;aspect=fixed;fillColor=#fff2cc;strokeColor=#d6b656;" parent="1" vertex="1">
          <mxGeometry x="548" y="570" width="30" height="30" as="geometry" />
        </mxCell>
        <mxCell id="Zes0WI2KeH20eFHIl-d8-138" value="W3,2" style="ellipse;whiteSpace=wrap;html=1;aspect=fixed;fillColor=#fff2cc;strokeColor=#d6b656;" parent="1" vertex="1">
          <mxGeometry x="578" y="570" width="30" height="30" as="geometry" />
        </mxCell>
        <mxCell id="Zes0WI2KeH20eFHIl-d8-139" value="S1,3" style="ellipse;whiteSpace=wrap;html=1;aspect=fixed;fillColor=#fff2cc;strokeColor=#d6b656;" parent="1" vertex="1">
          <mxGeometry x="610" y="570" width="30" height="30" as="geometry" />
        </mxCell>
        <mxCell id="Zes0WI2KeH20eFHIl-d8-140" value="" style="endArrow=classic;html=1;rounded=0;entryX=0.5;entryY=1;entryDx=0;entryDy=0;" parent="1" target="Zes0WI2KeH20eFHIl-d8-9" edge="1">
          <mxGeometry width="50" height="50" relative="1" as="geometry">
            <mxPoint x="180" y="145" as="sourcePoint" />
            <mxPoint x="230" y="95" as="targetPoint" />
          </mxGeometry>
        </mxCell>
        <mxCell id="Zes0WI2KeH20eFHIl-d8-141" value="" style="endArrow=classic;html=1;rounded=0;exitX=1;exitY=0.5;exitDx=0;exitDy=0;entryX=0;entryY=0.5;entryDx=0;entryDy=0;" parent="1" source="Zes0WI2KeH20eFHIl-d8-98" target="Zes0WI2KeH20eFHIl-d8-116" edge="1">
          <mxGeometry width="50" height="50" relative="1" as="geometry">
            <mxPoint x="180" y="170" as="sourcePoint" />
            <mxPoint x="230" y="120" as="targetPoint" />
          </mxGeometry>
        </mxCell>
        <mxCell id="Zes0WI2KeH20eFHIl-d8-142" value="" style="endArrow=classic;html=1;rounded=0;exitX=1;exitY=0.5;exitDx=0;exitDy=0;entryX=0.5;entryY=0;entryDx=0;entryDy=0;" parent="1" source="Zes0WI2KeH20eFHIl-d8-99" target="Zes0WI2KeH20eFHIl-d8-130" edge="1">
          <mxGeometry width="50" height="50" relative="1" as="geometry">
            <mxPoint x="210" y="260" as="sourcePoint" />
            <mxPoint x="260" y="210" as="targetPoint" />
          </mxGeometry>
        </mxCell>
        <mxCell id="Zes0WI2KeH20eFHIl-d8-143" value="" style="endArrow=classic;html=1;rounded=0;exitX=1;exitY=0.5;exitDx=0;exitDy=0;entryX=0.5;entryY=1;entryDx=0;entryDy=0;" parent="1" source="Zes0WI2KeH20eFHIl-d8-103" target="Zes0WI2KeH20eFHIl-d8-145" edge="1">
          <mxGeometry width="50" height="50" relative="1" as="geometry">
            <mxPoint x="180" y="310" as="sourcePoint" />
            <mxPoint x="290" y="210" as="targetPoint" />
          </mxGeometry>
        </mxCell>
        <mxCell id="Zes0WI2KeH20eFHIl-d8-144" value="W3,2" style="ellipse;whiteSpace=wrap;html=1;aspect=fixed;fillColor=#fff2cc;strokeColor=#d6b656;" parent="1" vertex="1">
          <mxGeometry x="500" y="68" width="28" height="28" as="geometry" />
        </mxCell>
        <mxCell id="Zes0WI2KeH20eFHIl-d8-145" value="W1,2" style="ellipse;whiteSpace=wrap;html=1;aspect=fixed;fillColor=#fff2cc;strokeColor=#d6b656;" parent="1" vertex="1">
          <mxGeometry x="472" y="67" width="28" height="28" as="geometry" />
        </mxCell>
        <mxCell id="Zes0WI2KeH20eFHIl-d8-147" value="" style="endArrow=classic;html=1;rounded=0;exitX=1;exitY=0.5;exitDx=0;exitDy=0;entryX=0;entryY=0.5;entryDx=0;entryDy=0;" parent="1" source="Zes0WI2KeH20eFHIl-d8-104" target="Zes0WI2KeH20eFHIl-d8-122" edge="1">
          <mxGeometry width="50" height="50" relative="1" as="geometry">
            <mxPoint x="190" y="340" as="sourcePoint" />
            <mxPoint x="240" y="290" as="targetPoint" />
          </mxGeometry>
        </mxCell>
        <mxCell id="Zes0WI2KeH20eFHIl-d8-148" value="" style="endArrow=classic;html=1;rounded=0;exitX=1;exitY=0.5;exitDx=0;exitDy=0;entryX=0.5;entryY=0;entryDx=0;entryDy=0;" parent="1" source="Zes0WI2KeH20eFHIl-d8-105" target="Zes0WI2KeH20eFHIl-d8-136" edge="1">
          <mxGeometry width="50" height="50" relative="1" as="geometry">
            <mxPoint x="270" y="430" as="sourcePoint" />
            <mxPoint x="320" y="380" as="targetPoint" />
          </mxGeometry>
        </mxCell>
        <mxCell id="Zes0WI2KeH20eFHIl-d8-149" value="" style="endArrow=classic;html=1;rounded=0;exitX=0.5;exitY=1;exitDx=0;exitDy=0;entryX=1;entryY=0.5;entryDx=0;entryDy=0;" parent="1" source="Zes0WI2KeH20eFHIl-d8-6" target="Zes0WI2KeH20eFHIl-d8-100" edge="1">
          <mxGeometry width="50" height="50" relative="1" as="geometry">
            <mxPoint x="262" y="158" as="sourcePoint" />
            <mxPoint x="312" y="108" as="targetPoint" />
          </mxGeometry>
        </mxCell>
        <mxCell id="Zes0WI2KeH20eFHIl-d8-150" value="" style="endArrow=classic;html=1;rounded=0;exitX=0.5;exitY=1;exitDx=0;exitDy=0;entryX=0;entryY=0.5;entryDx=0;entryDy=0;" parent="1" source="Zes0WI2KeH20eFHIl-d8-7" target="Zes0WI2KeH20eFHIl-d8-117" edge="1">
          <mxGeometry width="50" height="50" relative="1" as="geometry">
            <mxPoint x="260" y="180" as="sourcePoint" />
            <mxPoint x="310" y="130" as="targetPoint" />
          </mxGeometry>
        </mxCell>
        <mxCell id="Zes0WI2KeH20eFHIl-d8-151" value="" style="endArrow=classic;html=1;rounded=0;exitX=0.5;exitY=1;exitDx=0;exitDy=0;entryX=0.5;entryY=0;entryDx=0;entryDy=0;" parent="1" source="Zes0WI2KeH20eFHIl-d8-8" target="Zes0WI2KeH20eFHIl-d8-131" edge="1">
          <mxGeometry width="50" height="50" relative="1" as="geometry">
            <mxPoint x="280" y="180" as="sourcePoint" />
            <mxPoint x="330" y="130" as="targetPoint" />
          </mxGeometry>
        </mxCell>
        <mxCell id="Zes0WI2KeH20eFHIl-d8-152" value="" style="endArrow=classic;html=1;rounded=0;exitX=0.5;exitY=1;exitDx=0;exitDy=0;entryX=1;entryY=0.5;entryDx=0;entryDy=0;" parent="1" source="Zes0WI2KeH20eFHIl-d8-89" target="Zes0WI2KeH20eFHIl-d8-106" edge="1">
          <mxGeometry width="50" height="50" relative="1" as="geometry">
            <mxPoint x="390" y="160" as="sourcePoint" />
            <mxPoint x="440" y="110" as="targetPoint" />
          </mxGeometry>
        </mxCell>
        <mxCell id="Zes0WI2KeH20eFHIl-d8-153" value="" style="endArrow=classic;html=1;rounded=0;exitX=0.5;exitY=1;exitDx=0;exitDy=0;entryX=0;entryY=0.5;entryDx=0;entryDy=0;" parent="1" source="Zes0WI2KeH20eFHIl-d8-90" target="Zes0WI2KeH20eFHIl-d8-123" edge="1">
          <mxGeometry width="50" height="50" relative="1" as="geometry">
            <mxPoint x="420" y="270" as="sourcePoint" />
            <mxPoint x="470" y="220" as="targetPoint" />
          </mxGeometry>
        </mxCell>
        <mxCell id="Zes0WI2KeH20eFHIl-d8-154" value="" style="endArrow=classic;html=1;rounded=0;exitX=0.5;exitY=1;exitDx=0;exitDy=0;entryX=0.5;entryY=0;entryDx=0;entryDy=0;" parent="1" source="Zes0WI2KeH20eFHIl-d8-91" target="Zes0WI2KeH20eFHIl-d8-137" edge="1">
          <mxGeometry width="50" height="50" relative="1" as="geometry">
            <mxPoint x="430" y="260" as="sourcePoint" />
            <mxPoint x="480" y="210" as="targetPoint" />
          </mxGeometry>
        </mxCell>
        <mxCell id="Zes0WI2KeH20eFHIl-d8-155" value="" style="endArrow=classic;html=1;rounded=0;exitX=0.5;exitY=1;exitDx=0;exitDy=0;entryX=1;entryY=0.5;entryDx=0;entryDy=0;" parent="1" source="Zes0WI2KeH20eFHIl-d8-93" target="Zes0WI2KeH20eFHIl-d8-109" edge="1">
          <mxGeometry width="50" height="50" relative="1" as="geometry">
            <mxPoint x="540" y="200" as="sourcePoint" />
            <mxPoint x="590" y="150" as="targetPoint" />
          </mxGeometry>
        </mxCell>
        <mxCell id="Zes0WI2KeH20eFHIl-d8-156" value="" style="endArrow=classic;html=1;rounded=0;exitX=0;exitY=0.5;exitDx=0;exitDy=0;entryX=1;entryY=0.5;entryDx=0;entryDy=0;" parent="1" source="Zes0WI2KeH20eFHIl-d8-112" target="Zes0WI2KeH20eFHIl-d8-101" edge="1">
          <mxGeometry width="50" height="50" relative="1" as="geometry">
            <mxPoint x="540" y="210" as="sourcePoint" />
            <mxPoint x="590" y="160" as="targetPoint" />
          </mxGeometry>
        </mxCell>
        <mxCell id="Zes0WI2KeH20eFHIl-d8-157" value="" style="endArrow=classic;html=1;rounded=0;exitX=0;exitY=0.5;exitDx=0;exitDy=0;entryX=0.5;entryY=1;entryDx=0;entryDy=0;" parent="1" source="Zes0WI2KeH20eFHIl-d8-114" target="Zes0WI2KeH20eFHIl-d8-87" edge="1">
          <mxGeometry width="50" height="50" relative="1" as="geometry">
            <mxPoint x="420" y="310" as="sourcePoint" />
            <mxPoint x="470" y="260" as="targetPoint" />
          </mxGeometry>
        </mxCell>
        <mxCell id="Zes0WI2KeH20eFHIl-d8-158" value="" style="endArrow=classic;html=1;rounded=0;exitX=0;exitY=0.5;exitDx=0;exitDy=0;entryX=0.5;entryY=0;entryDx=0;entryDy=0;" parent="1" source="Zes0WI2KeH20eFHIl-d8-115" target="Zes0WI2KeH20eFHIl-d8-132" edge="1">
          <mxGeometry width="50" height="50" relative="1" as="geometry">
            <mxPoint x="430" y="320" as="sourcePoint" />
            <mxPoint x="480" y="270" as="targetPoint" />
          </mxGeometry>
        </mxCell>
        <mxCell id="Zes0WI2KeH20eFHIl-d8-159" value="" style="endArrow=classic;html=1;rounded=0;exitX=0;exitY=0.5;exitDx=0;exitDy=0;entryX=1;entryY=0.5;entryDx=0;entryDy=0;" parent="1" source="Zes0WI2KeH20eFHIl-d8-119" target="Zes0WI2KeH20eFHIl-d8-107" edge="1">
          <mxGeometry width="50" height="50" relative="1" as="geometry">
            <mxPoint x="420" y="360" as="sourcePoint" />
            <mxPoint x="470" y="310" as="targetPoint" />
          </mxGeometry>
        </mxCell>
        <mxCell id="Zes0WI2KeH20eFHIl-d8-160" value="" style="endArrow=classic;html=1;rounded=0;exitX=0;exitY=0.5;exitDx=0;exitDy=0;entryX=0.5;entryY=1;entryDx=0;entryDy=0;" parent="1" source="Zes0WI2KeH20eFHIl-d8-120" target="Zes0WI2KeH20eFHIl-d8-144" edge="1">
          <mxGeometry width="50" height="50" relative="1" as="geometry">
            <mxPoint x="390" y="460" as="sourcePoint" />
            <mxPoint x="440" y="410" as="targetPoint" />
          </mxGeometry>
        </mxCell>
        <mxCell id="Zes0WI2KeH20eFHIl-d8-161" value="" style="endArrow=classic;html=1;rounded=0;exitX=0;exitY=0.5;exitDx=0;exitDy=0;entryX=0.5;entryY=0;entryDx=0;entryDy=0;" parent="1" source="Zes0WI2KeH20eFHIl-d8-121" target="Zes0WI2KeH20eFHIl-d8-138" edge="1">
          <mxGeometry width="50" height="50" relative="1" as="geometry">
            <mxPoint x="420" y="450" as="sourcePoint" />
            <mxPoint x="470" y="400" as="targetPoint" />
          </mxGeometry>
        </mxCell>
        <mxCell id="Zes0WI2KeH20eFHIl-d8-162" value="" style="endArrow=classic;html=1;rounded=0;exitX=0;exitY=0.5;exitDx=0;exitDy=0;entryX=1;entryY=0.5;entryDx=0;entryDy=0;" parent="1" source="Zes0WI2KeH20eFHIl-d8-125" target="Zes0WI2KeH20eFHIl-d8-110" edge="1">
          <mxGeometry width="50" height="50" relative="1" as="geometry">
            <mxPoint x="550" y="480" as="sourcePoint" />
            <mxPoint x="600" y="430" as="targetPoint" />
          </mxGeometry>
        </mxCell>
        <mxCell id="Zes0WI2KeH20eFHIl-d8-163" value="" style="endArrow=classic;html=1;rounded=0;exitX=0.5;exitY=0;exitDx=0;exitDy=0;entryX=1;entryY=0.5;entryDx=0;entryDy=0;" parent="1" source="Zes0WI2KeH20eFHIl-d8-126" target="Zes0WI2KeH20eFHIl-d8-102" edge="1">
          <mxGeometry width="50" height="50" relative="1" as="geometry">
            <mxPoint x="250" y="520" as="sourcePoint" />
            <mxPoint x="300" y="470" as="targetPoint" />
          </mxGeometry>
        </mxCell>
        <mxCell id="Zes0WI2KeH20eFHIl-d8-164" value="" style="endArrow=classic;html=1;rounded=0;exitX=0.5;exitY=0;exitDx=0;exitDy=0;entryX=0.5;entryY=1;entryDx=0;entryDy=0;" parent="1" source="Zes0WI2KeH20eFHIl-d8-128" target="Zes0WI2KeH20eFHIl-d8-88" edge="1">
          <mxGeometry width="50" height="50" relative="1" as="geometry">
            <mxPoint x="260" y="560" as="sourcePoint" />
            <mxPoint x="310" y="510" as="targetPoint" />
          </mxGeometry>
        </mxCell>
        <mxCell id="Zes0WI2KeH20eFHIl-d8-165" value="" style="endArrow=classic;html=1;rounded=0;exitX=0.5;exitY=0;exitDx=0;exitDy=0;entryX=0;entryY=0.5;entryDx=0;entryDy=0;" parent="1" source="Zes0WI2KeH20eFHIl-d8-129" target="Zes0WI2KeH20eFHIl-d8-118" edge="1">
          <mxGeometry width="50" height="50" relative="1" as="geometry">
            <mxPoint x="390" y="490" as="sourcePoint" />
            <mxPoint x="440" y="440" as="targetPoint" />
          </mxGeometry>
        </mxCell>
        <mxCell id="Zes0WI2KeH20eFHIl-d8-166" value="" style="endArrow=classic;html=1;rounded=0;exitX=0.5;exitY=0;exitDx=0;exitDy=0;entryX=1;entryY=0.5;entryDx=0;entryDy=0;" parent="1" source="Zes0WI2KeH20eFHIl-d8-133" target="Zes0WI2KeH20eFHIl-d8-108" edge="1">
          <mxGeometry width="50" height="50" relative="1" as="geometry">
            <mxPoint x="440" y="560" as="sourcePoint" />
            <mxPoint x="490" y="510" as="targetPoint" />
          </mxGeometry>
        </mxCell>
        <mxCell id="Zes0WI2KeH20eFHIl-d8-167" value="" style="endArrow=classic;html=1;rounded=0;exitX=0.5;exitY=0;exitDx=0;exitDy=0;entryX=0.5;entryY=1;entryDx=0;entryDy=0;" parent="1" source="Zes0WI2KeH20eFHIl-d8-134" target="Zes0WI2KeH20eFHIl-d8-92" edge="1">
          <mxGeometry width="50" height="50" relative="1" as="geometry">
            <mxPoint x="470" y="560" as="sourcePoint" />
            <mxPoint x="520" y="510" as="targetPoint" />
          </mxGeometry>
        </mxCell>
        <mxCell id="Zes0WI2KeH20eFHIl-d8-168" value="" style="endArrow=classic;html=1;rounded=0;exitX=0.5;exitY=0;exitDx=0;exitDy=0;entryX=0;entryY=0.5;entryDx=0;entryDy=0;" parent="1" source="Zes0WI2KeH20eFHIl-d8-135" target="Zes0WI2KeH20eFHIl-d8-124" edge="1">
          <mxGeometry width="50" height="50" relative="1" as="geometry">
            <mxPoint x="490" y="560" as="sourcePoint" />
            <mxPoint x="540" y="510" as="targetPoint" />
          </mxGeometry>
        </mxCell>
        <mxCell id="Zes0WI2KeH20eFHIl-d8-169" value="" style="endArrow=classic;html=1;rounded=0;exitX=0.5;exitY=0;exitDx=0;exitDy=0;entryX=1;entryY=0.5;entryDx=0;entryDy=0;" parent="1" source="Zes0WI2KeH20eFHIl-d8-139" target="Zes0WI2KeH20eFHIl-d8-111" edge="1">
          <mxGeometry width="50" height="50" relative="1" as="geometry">
            <mxPoint x="520" y="500" as="sourcePoint" />
            <mxPoint x="570" y="450" as="targetPoint" />
          </mxGeometry>
        </mxCell>
        <mxCell id="Zes0WI2KeH20eFHIl-d8-170" value="Спільні ресурси" style="swimlane;whiteSpace=wrap;html=1;" parent="1" vertex="1">
          <mxGeometry x="204" y="680" width="426" height="150" as="geometry">
            <mxRectangle x="160" y="680" width="130" height="30" as="alternateBounds" />
          </mxGeometry>
        </mxCell>
        <mxCell id="Zes0WI2KeH20eFHIl-d8-171" value="z" style="ellipse;whiteSpace=wrap;html=1;aspect=fixed;fillColor=#d5e8d4;strokeColor=#82b366;" parent="Zes0WI2KeH20eFHIl-d8-170" vertex="1">
          <mxGeometry x="18" y="50" width="60" height="60" as="geometry" />
        </mxCell>
        <mxCell id="Zes0WI2KeH20eFHIl-d8-172" value="d" style="ellipse;whiteSpace=wrap;html=1;aspect=fixed;fillColor=#dae8fc;strokeColor=#6c8ebf;" parent="Zes0WI2KeH20eFHIl-d8-170" vertex="1">
          <mxGeometry x="264" y="50" width="60" height="60" as="geometry" />
        </mxCell>
        <mxCell id="Zes0WI2KeH20eFHIl-d8-173" value="p" style="ellipse;whiteSpace=wrap;html=1;aspect=fixed;fillColor=#dae8fc;strokeColor=#6c8ebf;" parent="Zes0WI2KeH20eFHIl-d8-170" vertex="1">
          <mxGeometry x="350" y="50" width="60" height="60" as="geometry" />
        </mxCell>
        <mxCell id="Zes0WI2KeH20eFHIl-d8-176" value="z" style="ellipse;whiteSpace=wrap;html=1;aspect=fixed;fillColor=#f5f5f5;fontColor=#333333;strokeColor=#666666;" parent="Zes0WI2KeH20eFHIl-d8-170" vertex="1">
          <mxGeometry x="90" y="50" width="60" height="60" as="geometry" />
        </mxCell>
        <mxCell id="Zes0WI2KeH20eFHIl-d8-177" value="MD" style="ellipse;whiteSpace=wrap;html=1;aspect=fixed;fillColor=#e1d5e7;strokeColor=#9673a6;" parent="Zes0WI2KeH20eFHIl-d8-170" vertex="1">
          <mxGeometry x="170" y="50" width="60" height="60" as="geometry" />
        </mxCell>
        <mxCell id="Zes0WI2KeH20eFHIl-d8-178" value="Ігнорувати" style="text;html=1;align=center;verticalAlign=middle;whiteSpace=wrap;rounded=0;" parent="Zes0WI2KeH20eFHIl-d8-170" vertex="1">
          <mxGeometry x="171" y="110" width="60" height="30" as="geometry" />
        </mxCell>
        <mxCell id="Zes0WI2KeH20eFHIl-d8-179" value="L1&lt;div&gt;(Lock)&lt;/div&gt;" style="text;html=1;align=center;verticalAlign=middle;whiteSpace=wrap;rounded=0;" parent="Zes0WI2KeH20eFHIl-d8-170" vertex="1">
          <mxGeometry x="18" y="110" width="60" height="30" as="geometry" />
        </mxCell>
        <mxCell id="Zes0WI2KeH20eFHIl-d8-180" value="Atomic" style="text;html=1;align=center;verticalAlign=middle;whiteSpace=wrap;rounded=0;" parent="Zes0WI2KeH20eFHIl-d8-170" vertex="1">
          <mxGeometry x="264" y="110" width="60" height="30" as="geometry" />
        </mxCell>
        <mxCell id="Zes0WI2KeH20eFHIl-d8-181" value="S2&lt;div&gt;(Semaphore)&lt;/div&gt;" style="text;html=1;align=center;verticalAlign=middle;whiteSpace=wrap;rounded=0;" parent="Zes0WI2KeH20eFHIl-d8-170" vertex="1">
          <mxGeometry x="86" y="110" width="60" height="30" as="geometry" />
        </mxCell>
        <mxCell id="Zes0WI2KeH20eFHIl-d8-182" value="Atomic" style="text;html=1;align=center;verticalAlign=middle;whiteSpace=wrap;rounded=0;" parent="Zes0WI2KeH20eFHIl-d8-170" vertex="1">
          <mxGeometry x="350" y="110" width="60" height="30" as="geometry" />
        </mxCell>
        <mxCell id="Zes0WI2KeH20eFHIl-d8-183" value="Спільна памʼять" style="rounded=0;whiteSpace=wrap;html=1;" parent="1" vertex="1">
          <mxGeometry x="230" y="900" width="400" height="80" as="geometry" />
        </mxCell>
        <mxCell id="Zes0WI2KeH20eFHIl-d8-184" value="Процесор 4" style="rounded=0;whiteSpace=wrap;html=1;" parent="1" vertex="1">
          <mxGeometry x="545" y="1020" width="85" height="20" as="geometry" />
        </mxCell>
        <mxCell id="Zes0WI2KeH20eFHIl-d8-185" value="Процесор 1" style="rounded=0;whiteSpace=wrap;html=1;" parent="1" vertex="1">
          <mxGeometry x="230" y="1020" width="84" height="20" as="geometry" />
        </mxCell>
        <mxCell id="Zes0WI2KeH20eFHIl-d8-186" value="Процесор 3" style="rounded=0;whiteSpace=wrap;html=1;" parent="1" vertex="1">
          <mxGeometry x="440" y="1020" width="84" height="20" as="geometry" />
        </mxCell>
        <mxCell id="Zes0WI2KeH20eFHIl-d8-187" value="Процесор 2" style="rounded=0;whiteSpace=wrap;html=1;" parent="1" vertex="1">
          <mxGeometry x="336" y="1020" width="84" height="20" as="geometry" />
        </mxCell>
        <mxCell id="Zes0WI2KeH20eFHIl-d8-191" value="" style="endArrow=none;html=1;rounded=0;exitX=0.5;exitY=0;exitDx=0;exitDy=0;entryX=0.25;entryY=1;entryDx=0;entryDy=0;" parent="1" source="Zes0WI2KeH20eFHIl-d8-185" target="Zes0WI2KeH20eFHIl-d8-183" edge="1">
          <mxGeometry width="50" height="50" relative="1" as="geometry">
            <mxPoint x="390" y="1070" as="sourcePoint" />
            <mxPoint x="320" y="990" as="targetPoint" />
          </mxGeometry>
        </mxCell>
        <mxCell id="Zes0WI2KeH20eFHIl-d8-193" value="" style="endArrow=none;html=1;rounded=0;exitX=0.5;exitY=0;exitDx=0;exitDy=0;entryX=0.5;entryY=1;entryDx=0;entryDy=0;" parent="1" source="Zes0WI2KeH20eFHIl-d8-187" target="Zes0WI2KeH20eFHIl-d8-183" edge="1">
          <mxGeometry width="50" height="50" relative="1" as="geometry">
            <mxPoint x="360" y="1100" as="sourcePoint" />
            <mxPoint x="410" y="1050" as="targetPoint" />
          </mxGeometry>
        </mxCell>
        <mxCell id="Zes0WI2KeH20eFHIl-d8-194" value="" style="endArrow=none;html=1;rounded=0;exitX=0.5;exitY=0;exitDx=0;exitDy=0;entryX=0.5;entryY=1;entryDx=0;entryDy=0;" parent="1" source="Zes0WI2KeH20eFHIl-d8-186" target="Zes0WI2KeH20eFHIl-d8-183" edge="1">
          <mxGeometry width="50" height="50" relative="1" as="geometry">
            <mxPoint x="470" y="1100" as="sourcePoint" />
            <mxPoint x="520" y="1050" as="targetPoint" />
          </mxGeometry>
        </mxCell>
        <mxCell id="Zes0WI2KeH20eFHIl-d8-195" value="" style="endArrow=none;html=1;rounded=0;exitX=0.5;exitY=0;exitDx=0;exitDy=0;entryX=0.75;entryY=1;entryDx=0;entryDy=0;" parent="1" source="Zes0WI2KeH20eFHIl-d8-184" target="Zes0WI2KeH20eFHIl-d8-183" edge="1">
          <mxGeometry width="50" height="50" relative="1" as="geometry">
            <mxPoint x="650" y="1030" as="sourcePoint" />
            <mxPoint x="700" y="980" as="targetPoint" />
          </mxGeometry>
        </mxCell>
        <mxCell id="Zes0WI2KeH20eFHIl-d8-196" value="d, MA" style="shape=cube;whiteSpace=wrap;html=1;boundedLbl=1;backgroundOutline=1;darkOpacity=0.05;darkOpacity2=0.1;" parent="1" vertex="1">
          <mxGeometry x="230" y="1070" width="90" height="50" as="geometry" />
        </mxCell>
        <mxCell id="Zes0WI2KeH20eFHIl-d8-198" value="" style="endArrow=none;html=1;rounded=0;entryX=0.5;entryY=1;entryDx=0;entryDy=0;exitX=0;exitY=0;exitDx=35;exitDy=0;exitPerimeter=0;" parent="1" source="Zes0WI2KeH20eFHIl-d8-196" target="Zes0WI2KeH20eFHIl-d8-185" edge="1">
          <mxGeometry width="50" height="50" relative="1" as="geometry">
            <mxPoint x="160" y="1110" as="sourcePoint" />
            <mxPoint x="210" y="1060" as="targetPoint" />
          </mxGeometry>
        </mxCell>
        <mxCell id="Zes0WI2KeH20eFHIl-d8-199" value="MX" style="shape=cube;whiteSpace=wrap;html=1;boundedLbl=1;backgroundOutline=1;darkOpacity=0.05;darkOpacity2=0.1;" parent="1" vertex="1">
          <mxGeometry x="336" y="1070" width="90" height="50" as="geometry" />
        </mxCell>
        <mxCell id="Zes0WI2KeH20eFHIl-d8-200" value="MC, p" style="shape=cube;whiteSpace=wrap;html=1;boundedLbl=1;backgroundOutline=1;darkOpacity=0.05;darkOpacity2=0.1;" parent="1" vertex="1">
          <mxGeometry x="442" y="1070" width="90" height="50" as="geometry" />
        </mxCell>
        <mxCell id="Zes0WI2KeH20eFHIl-d8-201" value="Z, MD" style="shape=cube;whiteSpace=wrap;html=1;boundedLbl=1;backgroundOutline=1;darkOpacity=0.05;darkOpacity2=0.1;" parent="1" vertex="1">
          <mxGeometry x="548" y="1070" width="90" height="50" as="geometry" />
        </mxCell>
        <mxCell id="Zes0WI2KeH20eFHIl-d8-202" value="" style="endArrow=none;html=1;rounded=0;exitX=0;exitY=0;exitDx=35;exitDy=0;exitPerimeter=0;entryX=0.5;entryY=1;entryDx=0;entryDy=0;" parent="1" source="Zes0WI2KeH20eFHIl-d8-199" target="Zes0WI2KeH20eFHIl-d8-187" edge="1">
          <mxGeometry width="50" height="50" relative="1" as="geometry">
            <mxPoint x="390" y="1130" as="sourcePoint" />
            <mxPoint x="440" y="1080" as="targetPoint" />
          </mxGeometry>
        </mxCell>
        <mxCell id="Zes0WI2KeH20eFHIl-d8-203" value="" style="endArrow=none;html=1;rounded=0;exitX=0;exitY=0;exitDx=35;exitDy=0;exitPerimeter=0;entryX=0.5;entryY=1;entryDx=0;entryDy=0;" parent="1" source="Zes0WI2KeH20eFHIl-d8-200" target="Zes0WI2KeH20eFHIl-d8-186" edge="1">
          <mxGeometry width="50" height="50" relative="1" as="geometry">
            <mxPoint x="530" y="1160" as="sourcePoint" />
            <mxPoint x="580" y="1110" as="targetPoint" />
          </mxGeometry>
        </mxCell>
        <mxCell id="Zes0WI2KeH20eFHIl-d8-204" value="" style="endArrow=none;html=1;rounded=0;exitX=0;exitY=0;exitDx=35;exitDy=0;exitPerimeter=0;entryX=0.5;entryY=1;entryDx=0;entryDy=0;" parent="1" source="Zes0WI2KeH20eFHIl-d8-201" target="Zes0WI2KeH20eFHIl-d8-184" edge="1">
          <mxGeometry width="50" height="50" relative="1" as="geometry">
            <mxPoint x="650" y="1110" as="sourcePoint" />
            <mxPoint x="700" y="1060" as="targetPoint" />
          </mxGeometry>
        </mxCell>
      </root>
    </mxGraphModel>
  </diagram>
</mxfile>
